<svg viewBox="0 0 1200 360" width="1200" height="360" xmlns="http://www.w3.org/2000/svg">
  <defs>
    <linearGradient id="bg" x1="0%" y1="0%" x2="100%" y2="100%">
      <stop offset="0%" stop-color="#0a1a2f"/>
      <stop offset="50%" stop-color="#0d2440"/>
      <stop offset="100%" stop-color="#081420"/>
    </linearGradient>
    <radialGradient id="glow" cx="50%" cy="35%" r="60%">
      <stop offset="0%" stop-color="#2b7de9" stop-opacity="0.35"/>
      <stop offset="100%" stop-color="#2b7de9" stop-opacity="0"/>
    </radialGradient>
    <linearGradient id="lockGrad" x1="0%" y1="0%" x2="100%" y2="100%">
      <stop offset="0%" stop-color="#7fb3ff" stop-opacity="0.25"/>
      <stop offset="100%" stop-color="#7fb3ff" stop-opacity="0.05"/>
    </linearGradient>
  </defs>

  <rect x="0" y="0" width="1200" height="360" fill="url(#bg)"/>
  <rect x="0" y="0" width="1200" height="360" fill="url(#glow)"/>

  <g opacity="0.12" stroke="#7fb3ff" stroke-width="1">
    <line x1="0" y1="60" x2="1200" y2="60"/>
    <line x1="0" y1="300" x2="1200" y2="300"/>
  </g>

  <g opacity="0.15">
    <circle cx="140" cy="80" r="70" fill="none" stroke="#7fb3ff" stroke-width="1.5"/>
    <circle cx="1060" cy="290" r="90" fill="none" stroke="#7fb3ff" stroke-width="1.5"/>
    <circle cx="1000" cy="60" r="30" fill="#7fb3ff" opacity="0.3"/>
    <circle cx="120" cy="310" r="20" fill="#7fb3ff" opacity="0.3"/>
  </g>

  <g opacity="0.18" fill="url(#lockGrad)" stroke="#7fb3ff" stroke-width="1">
    <rect x="60" y="150" width="46" height="36" rx="6"/>
    <path d="M70 150 v-14 a13 13 0 0 1 26 0 v14" fill="none"/>
  </g>
  <g opacity="0.18" fill="url(#lockGrad)" stroke="#7fb3ff" stroke-width="1">
    <rect x="1094" y="150" width="46" height="36" rx="6"/>
    <path d="M1104 150 v-14 a13 13 0 0 1 26 0 v14" fill="none"/>
  </g>

  <path d="M0 250 Q300 220 600 250 T1200 250" fill="none" stroke="#7fb3ff" stroke-width="1" opacity="0.15"/>

  <text x="600" y="160" text-anchor="middle" font-family="Segoe UI, Arial, sans-serif" font-size="60.0" fill="#ffffff" font-weight="600">
    <tspan x="600" dy="0">Azure Latch Script</tspan>
  </text>

  <text x="600" y="220" text-anchor="middle" font-family="Segoe UI, Arial, sans-serif" font-size="21.0" fill="#c9d1d9">
    <tspan x="600" dy="0">Automate Azure resource locks for cloud engineers — script latch triggers</tspan>
    <tspan x="600" dy="30">and stop unwanted deletions before…</tspan>
  </text>
</svg>